<svg width="102" height="67" xmlns="http://www.w3.org/2000/svg" xmlns:xlink="http://www.w3.org/1999/xlink" overflow="hidden"><defs><clipPath id="clip0"><rect x="692" y="83" width="102" height="67"/></clipPath></defs><g clip-path="url(#clip0)" transform="translate(-692 -83)"><path d="M476.843 144.084 488.047 144.084 488.047 173.214 476.843 173.214Z" fill="#9DC3E6" transform="matrix(1.02521 0 0 1 293.649 -35.5385)"/><path d="M467.951 118.54 484.887 118.626 405.186 185.456 388.755 185.14C408.848 169.164 446.18 138.549 467.951 118.54Z" fill="#9DC3E6" fill-rule="evenodd" transform="matrix(1.02521 0 0 1 293.649 -35.5385)"/><path d="M3.73183 12.0768 16.1115 1.43994e-05 11.4458 64.9663 2.93325e-05 75.0214C2.02553 58.065 3.74666 31.6593 3.73183 12.0768Z" fill="#9DC3E6" fill-rule="evenodd" transform="matrix(-0.725752 0.689367 0.706747 0.707904 720.303 84.7693)"/><path d="M477.739 137.137C477.739 134.786 480.047 132.88 482.893 132.88 485.739 132.88 488.047 134.786 488.047 137.137 488.047 139.488 485.739 141.395 482.893 141.395 480.047 141.395 477.739 139.488 477.739 137.137Z" fill="#9DC3E6" fill-rule="evenodd" transform="matrix(1.02521 0 0 1 293.649 -35.5385)"/></g></svg>